<mxfile host="app.diagrams.net" agent="Mozilla/5.0 (Windows NT 10.0; Win64; x64) AppleWebKit/537.36 (KHTML, like Gecko) Chrome/132.0.0.0 Safari/537.36 OPR/117.0.0.0 (Edition std-2)" version="26.1.3">
  <diagram name="Page-1" id="9mIexv06tdnxv1_z6WGG">
    <mxGraphModel dx="2217" dy="786" grid="1" gridSize="10" guides="1" tooltips="1" connect="1" arrows="1" fold="1" page="1" pageScale="1" pageWidth="827" pageHeight="1169" math="0" shadow="0">
      <root>
        <mxCell id="0" />
        <mxCell id="1" parent="0" />
        <mxCell id="LmMnztGIohbk7HPVnjNi-1" value="" style="rounded=0;whiteSpace=wrap;html=1;" parent="1" vertex="1">
          <mxGeometry x="120" y="180" width="160" height="200" as="geometry" />
        </mxCell>
        <mxCell id="LmMnztGIohbk7HPVnjNi-2" value="&lt;br&gt;&lt;div&gt;Transaction&lt;br&gt;&lt;br&gt;&lt;/div&gt;" style="text;html=1;align=center;verticalAlign=middle;whiteSpace=wrap;rounded=0;" parent="1" vertex="1">
          <mxGeometry x="120" y="180" width="160" height="30" as="geometry" />
        </mxCell>
        <mxCell id="LmMnztGIohbk7HPVnjNi-3" value="&lt;br&gt;transactionId (PK)&lt;div&gt;&lt;br&gt;&lt;/div&gt;" style="text;html=1;align=center;verticalAlign=middle;whiteSpace=wrap;rounded=0;" parent="1" vertex="1">
          <mxGeometry x="120" y="230" width="160" height="30" as="geometry" />
        </mxCell>
        <mxCell id="LmMnztGIohbk7HPVnjNi-4" value="amount" style="text;html=1;align=center;verticalAlign=middle;whiteSpace=wrap;rounded=0;" parent="1" vertex="1">
          <mxGeometry x="120" y="260" width="160" height="30" as="geometry" />
        </mxCell>
        <mxCell id="LmMnztGIohbk7HPVnjNi-5" value="createdAt" style="text;html=1;align=center;verticalAlign=middle;whiteSpace=wrap;rounded=0;" parent="1" vertex="1">
          <mxGeometry x="120" y="290" width="160" height="30" as="geometry" />
        </mxCell>
        <mxCell id="LmMnztGIohbk7HPVnjNi-9" value="statusId (FK)" style="text;html=1;align=center;verticalAlign=middle;whiteSpace=wrap;rounded=0;" parent="1" vertex="1">
          <mxGeometry x="120" y="350" width="160" height="30" as="geometry" />
        </mxCell>
        <mxCell id="LmMnztGIohbk7HPVnjNi-10" value="customerName" style="text;html=1;align=center;verticalAlign=middle;whiteSpace=wrap;rounded=0;" parent="1" vertex="1">
          <mxGeometry x="120" y="320" width="160" height="30" as="geometry" />
        </mxCell>
        <mxCell id="LmMnztGIohbk7HPVnjNi-12" value="" style="rounded=0;whiteSpace=wrap;html=1;" parent="1" vertex="1">
          <mxGeometry x="350" y="180" width="160" height="140" as="geometry" />
        </mxCell>
        <mxCell id="LmMnztGIohbk7HPVnjNi-13" value="Customer" style="text;html=1;align=center;verticalAlign=middle;whiteSpace=wrap;rounded=0;" parent="1" vertex="1">
          <mxGeometry x="350" y="180" width="160" height="30" as="geometry" />
        </mxCell>
        <mxCell id="LmMnztGIohbk7HPVnjNi-14" value="&lt;div&gt;customerId (PK)&lt;/div&gt;" style="text;html=1;align=center;verticalAlign=middle;whiteSpace=wrap;rounded=0;" parent="1" vertex="1">
          <mxGeometry x="350" y="230" width="160" height="30" as="geometry" />
        </mxCell>
        <mxCell id="LmMnztGIohbk7HPVnjNi-15" value="&lt;div&gt;name&lt;/div&gt;" style="text;html=1;align=center;verticalAlign=middle;whiteSpace=wrap;rounded=0;" parent="1" vertex="1">
          <mxGeometry x="350" y="260" width="160" height="30" as="geometry" />
        </mxCell>
        <mxCell id="LmMnztGIohbk7HPVnjNi-16" value="&lt;div&gt;email&lt;/div&gt;" style="text;html=1;align=center;verticalAlign=middle;whiteSpace=wrap;rounded=0;" parent="1" vertex="1">
          <mxGeometry x="350" y="290" width="160" height="30" as="geometry" />
        </mxCell>
        <mxCell id="LmMnztGIohbk7HPVnjNi-17" value="" style="rounded=0;whiteSpace=wrap;html=1;" parent="1" vertex="1">
          <mxGeometry x="-110" y="180" width="160" height="110" as="geometry" />
        </mxCell>
        <mxCell id="LmMnztGIohbk7HPVnjNi-18" value="Transaction_Status" style="text;html=1;align=center;verticalAlign=middle;whiteSpace=wrap;rounded=0;" parent="1" vertex="1">
          <mxGeometry x="-110" y="180" width="160" height="30" as="geometry" />
        </mxCell>
        <mxCell id="LmMnztGIohbk7HPVnjNi-19" value="&lt;div&gt;statusId (PK)&lt;/div&gt;" style="text;html=1;align=center;verticalAlign=middle;whiteSpace=wrap;rounded=0;" parent="1" vertex="1">
          <mxGeometry x="-110" y="230" width="160" height="30" as="geometry" />
        </mxCell>
        <mxCell id="LmMnztGIohbk7HPVnjNi-20" value="statusName" style="text;html=1;align=center;verticalAlign=middle;whiteSpace=wrap;rounded=0;" parent="1" vertex="1">
          <mxGeometry x="-110" y="260" width="160" height="30" as="geometry" />
        </mxCell>
        <mxCell id="LmMnztGIohbk7HPVnjNi-26" value="" style="endArrow=none;html=1;rounded=0;" parent="1" source="LmMnztGIohbk7HPVnjNi-3" target="LmMnztGIohbk7HPVnjNi-14" edge="1">
          <mxGeometry width="50" height="50" relative="1" as="geometry">
            <mxPoint x="290" y="260" as="sourcePoint" />
            <mxPoint x="340" y="210" as="targetPoint" />
            <Array as="points" />
          </mxGeometry>
        </mxCell>
        <mxCell id="LmMnztGIohbk7HPVnjNi-27" value="N:1" style="text;html=1;align=center;verticalAlign=middle;whiteSpace=wrap;rounded=0;" parent="1" vertex="1">
          <mxGeometry x="280" y="220" width="70" height="30" as="geometry" />
        </mxCell>
        <mxCell id="LmMnztGIohbk7HPVnjNi-28" value="" style="endArrow=none;html=1;rounded=0;" parent="1" source="LmMnztGIohbk7HPVnjNi-19" target="LmMnztGIohbk7HPVnjNi-3" edge="1">
          <mxGeometry width="50" height="50" relative="1" as="geometry">
            <mxPoint x="50" y="260" as="sourcePoint" />
            <mxPoint x="100" y="210" as="targetPoint" />
          </mxGeometry>
        </mxCell>
        <mxCell id="LmMnztGIohbk7HPVnjNi-29" value="1:N" style="text;html=1;align=center;verticalAlign=middle;whiteSpace=wrap;rounded=0;" parent="1" vertex="1">
          <mxGeometry x="50" y="220" width="70" height="30" as="geometry" />
        </mxCell>
        <mxCell id="LmMnztGIohbk7HPVnjNi-30" value="" style="endArrow=none;html=1;rounded=0;entryX=0.994;entryY=0.224;entryDx=0;entryDy=0;entryPerimeter=0;exitX=0.013;exitY=0.224;exitDx=0;exitDy=0;exitPerimeter=0;" parent="1" edge="1">
          <mxGeometry width="50" height="50" relative="1" as="geometry">
            <mxPoint x="353.0399999999999" y="220" as="sourcePoint" />
            <mxPoint x="509.99999999999994" y="220" as="targetPoint" />
          </mxGeometry>
        </mxCell>
        <mxCell id="LmMnztGIohbk7HPVnjNi-32" value="" style="endArrow=none;html=1;rounded=0;entryX=0.994;entryY=0.224;entryDx=0;entryDy=0;entryPerimeter=0;exitX=0.013;exitY=0.224;exitDx=0;exitDy=0;exitPerimeter=0;" parent="1" edge="1">
          <mxGeometry width="50" height="50" relative="1" as="geometry">
            <mxPoint x="121.5" y="220" as="sourcePoint" />
            <mxPoint x="278.5" y="220" as="targetPoint" />
          </mxGeometry>
        </mxCell>
        <mxCell id="LmMnztGIohbk7HPVnjNi-34" value="" style="endArrow=none;html=1;rounded=0;entryX=0.994;entryY=0.224;entryDx=0;entryDy=0;entryPerimeter=0;exitX=0.013;exitY=0.224;exitDx=0;exitDy=0;exitPerimeter=0;" parent="1" edge="1">
          <mxGeometry width="50" height="50" relative="1" as="geometry">
            <mxPoint x="-107" y="220" as="sourcePoint" />
            <mxPoint x="50" y="220" as="targetPoint" />
          </mxGeometry>
        </mxCell>
        <mxCell id="LmMnztGIohbk7HPVnjNi-35" style="edgeStyle=orthogonalEdgeStyle;rounded=0;orthogonalLoop=1;jettySize=auto;html=1;exitX=0.5;exitY=1;exitDx=0;exitDy=0;" parent="1" source="LmMnztGIohbk7HPVnjNi-17" target="LmMnztGIohbk7HPVnjNi-17" edge="1">
          <mxGeometry relative="1" as="geometry" />
        </mxCell>
        <mxCell id="LmMnztGIohbk7HPVnjNi-36" style="edgeStyle=orthogonalEdgeStyle;rounded=0;orthogonalLoop=1;jettySize=auto;html=1;exitX=0.5;exitY=1;exitDx=0;exitDy=0;" parent="1" source="LmMnztGIohbk7HPVnjNi-12" target="LmMnztGIohbk7HPVnjNi-12" edge="1">
          <mxGeometry relative="1" as="geometry" />
        </mxCell>
      </root>
    </mxGraphModel>
  </diagram>
</mxfile>
